# AST/ASF file generated using VICON BodyLanguage
# -----------------------------------------------
:version 1.10
:name VICON
:units
  mass 1.0
  length 0.45
  angle deg
:documentation
   .ast/.asf automatically generated from VICON data using
   VICON BodyBuilder and BodyLanguage model FoxedUp or BRILLIANT.MOD
:root
   order TX TY TZ RX RY RZ
   axis XYZ
   position 0 0 0  
   orientation 0 0 0 
:bonedata
  begin
     id 1 
     name lhipjoint
     direction 0.611804 -0.747784 0.257906 
     length 2.29243 
     axis 0 0 0  XYZ
  end
  begin
     id 2 
     name lfemur
     direction 0.34202 -0.939693 0  
     length 7.31159  
     axis 0 0 20  XYZ
    dof rx ry rz
    limits (-160.0 20.0)
           (-70.0 70.0)
           (-60.0 70.0)
  end
  begin
     id 3 
     name ltibia
     direction 0.34202 -0.939693 0   
     length 7.33391   
     axis 0 0 20   XYZ
    dof rx
    limits (-10.0 170.0)
  end
  begin
     id 4 
     name lfoot
     direction 0.122263 -0.335914 0.933924   
     length 1.76083   
     axis -90 7.62852e-016 20   XYZ
    dof rx rz
    limits (-45.0 90.0)
           (-70.0 20.0)
  end
  begin
     id 5 
     name ltoes
     direction 1.53533e-011 -4.2177e-011 1   
     length 0.879206   
     axis -90 7.62852e-016 20   XYZ
    dof rx
    limits (-90.0 20.0)
  end
  begin
     id 6 
     name rhipjoint
     direction -0.646469 -0.721248 0.248754   
     length 2.37677  
     axis 0 0 0  XYZ 
  end
  begin
     id 7 
     name rfemur
     direction -0.34202 -0.939693 0   
     length 7.18623   
     axis 0 0 -20   XYZ
    dof rx ry rz
    limits (-160.0 20.0)
           (-70.0 70.0)
           (-70.0 60.0)
  end
  begin
     id 8 
     name rtibia
     direction -0.34202 -0.939693 0   
     length 7.36567   
     axis 0 0 -20   XYZ
    dof rx
    limits (-10.0 170.0)
 end
 begin
     id 9 
     name rfoot
     direction -0.126681 -0.348054 0.928876   
     length 1.71902  
     axis -90 -7.62852e-016 -20   XYZ
    dof rx rz
    limits (-45.0 90.0)
           (-20.0 70.0)
  end
  begin
     id 10 
     name rtoes
     direction -1.53551e-011 -4.21898e-011 1   
     length 0.857792   
     axis -90 -7.62852e-016 -20   XYZ
    dof rx
    limits (-90.0 20.0)
  end
  begin
     id 11 
     name lowerback
     direction 0.0106509 0.999778 0.0181844   
     length 2.07668   
     axis 0 0 0   XYZ
    dof rx ry rz
    limits (-20.0 45.0)
           (-30.0 30.0)
           (-30.0 30.0)
  end
  begin
     id 12 
     name upperback
     direction -0.00456018 0.999989 -0.000590935   
     length 2.08011   
     axis 0 0 0   XYZ
    dof rx ry rz
    limits (-20.0 45.0)
           (-30.0 30.0)
           (-30.0 30.0)
  end
  begin
     id 13 
     name thorax
     direction -0.00910382 0.999916 -0.00923765   
     length 2.07397   
     axis 0 0 0   XYZ
    dof rx ry rz
    limits (-20.0 45.0)
           (-30.0 30.0)
           (-30.0 30.0)
  end
  begin
     id 14 
     name lowerneck
     direction 0.00171967 0.99778 0.0665733   
     length 1.67556   
     axis 0 0 0   XYZ
    dof rx ry rz
    limits (-20.0 45.0)
           (-30.0 30.0)
           (-30.0 30.0)
  end
  begin
     id 15 
     name upperneck
     direction -0.0143166 0.991302 -0.130828   
     length 1.68462   
     axis 0 0 0   XYZ
    dof rx ry rz
    limits (-20.0 45.0)
           (-30.0 30.0)
           (-30.0 30.0)
  end
  begin
     id 16
     name head
     direction -0.00606378 0.998665 -0.0512995  
     length 1.69269  
     axis 0 0 0   XYZ
    dof rx ry rz
    limits (-20.0 45.0)
           (-30.0 30.0)
           (-30.0 30.0)
  end
  begin
     id 17 
     name lclavicle
     direction 0.9638 0.179341 0.197297  
     length 4.12888  
     axis 0 0 0   XYZ
    dof ry rz
    limits (-20.0 10.0)
           (0.0 20.0)
  end
  begin
     id 18 
     name lhumerus
     direction 1 -4.48972e-011 -2.47351e-027   
     length 5.01834   
     axis -180 -30 -90   XYZ
    dof rx ry rz
    limits (-60.0 90.0)
           (-90.0 90.0)
           (-90.0 90.0)
  end
  begin
     id 19
     name lradius
     direction 1 -4.48965e-011 1.51591e-026   
     length 3.4869   
     axis -180 -30 -90   XYZ
    dof rx
    limits (-10.0 170.0)
  end
  begin
     id 20
     name lwrist
     direction 1 -4.48957e-011 2.70032e-026   
     length 1.74345   
     axis -1.81515e-014 90 90   XYZ
    dof ry
    limits (-180.0 0.0)
 end
  begin
     id 21 
     name lhand
     direction 1 -4.48951e-011 5.40064e-026   
     length 0.76799   
     axis -3.44607e-014 90 90   XYZ
    dof rx rz
    limits (-90.0 90.0)
           (-45.0 45.0)
  end
  begin
     id 22 
     name lfingers
     direction 1 -4.48971e-011 1.08013e-025   
     length 0.619174   
     axis -6.89214e-014 90 90   XYZ
    dof rx
    limits (0.0 90.0)
  end
  begin
     id 23
     name lthumb
     direction 0.707107 -6.34931e-011 0.707107   
     length 0.889013   
     axis -90 45 2.85299e-015   XYZ
    dof rx rz
    limits (-45.0 45.0)
           (-45.0 45.0)
  end
  begin
     id 24 
     name rclavicle
     direction -0.961409 0.252588 0.109054   
     length 4.04305  
     axis 0 0 0   XYZ 
    dof ry rz
    limits (-10.0 20.0)
           (-20.0 0.0)
  end
  begin
     id 25 
     name rhumerus
     direction -1 -4.4897e-011 1.33872e-017  
     length 4.70164   
     axis -180 30 90   XYZ
    dof rx ry rz
    limits (-90.0 60.0)
           (-90.0 90.0)
           (-90.0 90.0)
  end
  begin
     id 26 
     name rradius
     direction -1 -4.48954e-011 1.83844e-026   
     length 3.49911   
     axis -180 30 90   XYZ
    dof rx
    limits (-10.0 170.0)
  end
  begin
     id 27 
     name rwrist
     direction -1 -4.49008e-011 2.70032e-026   
     length 1.74955   
     axis -1.81515e-014 -90 -90   XYZ
    dof ry
    limits (-180.0 0.0)
  end
  begin
     id 28
     name rhand
     direction -1 -4.48916e-011 5.40064e-026   
     length 0.739335   
     axis -3.44607e-014 -90 -90   XYZ
    dof rx rz
    limits (-90.0 90.0)
           (-45.0 45.0)
  end
  begin
     id 29
     name rfingers
     direction -1 -4.48987e-011 1.08013e-025   
     length 0.596071   
     axis -6.89214e-014 -90 -90   XYZ
    dof rx
    limits (0.0 90.0)
  end
  begin
     id 30
     name rthumb
     direction -0.707107 -6.34935e-011 0.707107   
     length 0.855843   
     axis -90 -45 -2.85299e-015   XYZ
    dof rx rz
    limits (-45.0 45.0)
           (-45.0 45.0)
  end
:hierarchy
  begin
    root lhipjoint rhipjoint lowerback
    lhipjoint lfemur
    lfemur ltibia
    ltibia lfoot
    lfoot ltoes
    rhipjoint rfemur
    rfemur rtibia
    rtibia rfoot
    rfoot rtoes
    lowerback upperback
    upperback thorax
    thorax lowerneck lclavicle rclavicle
    lowerneck upperneck
    upperneck head
    lclavicle lhumerus
    lhumerus lradius
    lradius lwrist
    lwrist lhand lthumb
    lhand lfingers
    rclavicle rhumerus
    rhumerus rradius
    rradius rwrist
    rwrist rhand rthumb
    rhand rfingers
  end

#!OML:ASF I:\salsa\salsa 7_09\Patient 1\Session 1\dancermale.ASF
:FULLY-SPECIFIED
:DEGREES
344
root 1.80043 16.7341 -1.39744 -747.693 97.19 -391.656
lowerback -7.18344 -0.402676 0.42135
upperback 1.17097 -0.439717 -2.26825
thorax 5.2308 -0.160975 -2.64854
lowerneck -5.89646 -4.22757 -0.426611
upperneck 30.7694 -4.68361 -0.322732
head 10.8522 -1.77579 -0.461554
rclavicle -6.42944e-015 -2.50469e-014
rhumerus -47.4946 17.5382 -107.573
rradius 83.4809
rwrist 21.8881
rhand 140.298 199.139
rfingers 7.12502
rthumb -12.6804 -10.4559
lclavicle -6.42944e-015 -2.50469e-014
lhumerus -43.7437 -31.6784 103.974
lradius 121.269
lwrist 47.7873
lhand -23.6041 53.4945
lfingers 7.12502
lthumb 2.85975 443.455
rfemur -19.2707 -18.2738 16.4976
rtibia 77.085
rfoot 15.1982 -1.40515
rtoes 10.8679
lfemur -27.5216 9.75389 -34.2614
ltibia 27.5031
lfoot -18.7624 -7.51507
ltoes -33.6695
345
root 1.63476 16.6775 -1.40058 -749.541 97.787 -393.981
lowerback -7.49266 -0.65908 -0.0553929
upperback 0.976861 -0.713755 -2.57489
thorax 5.19191 -0.303741 -2.73395
lowerneck -5.85587 -3.95371 -0.0549842
upperneck 30.5267 -4.32997 -0.467857
head 10.7355 -1.59915 -0.537405
rclavicle -8.54153e-015 -5.96354e-015
rhumerus -49.1224 18.0823 -107.546
rradius 84.5481
rwrist 21.6647
rhand 140.215 199.213
rfingers 7.12502
rthumb -12.7604 -10.3767
lclavicle -8.54153e-015 -5.96354e-015
lhumerus -45.7951 -32.8918 106.921
lradius 118.613
lwrist 49.2074
lhand -24.4628 52.013
lfingers 7.12502
lthumb 2.0304 441.983
rfemur -18.0221 -18.6389 16.4562
rtibia 75.6043
rfoot 17.4534 -1.89274
rtoes 17.211
lfemur -28.9987 9.42785 -35.3585
ltibia 28.1745
lfoot -19.0313 -7.68323
ltoes -35.0914
346
root 1.47396 16.626 -1.40594 -750.749 98.1002 -395.685
lowerback -7.94286 -0.861684 -0.340184
upperback 0.808718 -0.933197 -2.80202
thorax 5.2619 -0.414028 -2.84374
lowerneck -5.75019 -3.62746 0.162359
upperneck 30.3445 -3.94433 -0.339645
head 10.6435 -1.39045 -0.484775
rclavicle -2.90723e-015 1.90833e-014
rhumerus -50.7164 18.5905 -107.359
rradius 85.6886
rwrist 21.4077
rhand 140.385 199.168
rfingers 7.12502
rthumb -12.5966 -10.4322
lclavicle -2.90723e-015 1.90833e-014
lhumerus -47.3136 -33.7728 109.151
lradius 116.092
lwrist 50.8872
lhand -24.2589 51.4022
lfingers 7.12502
lthumb 2.22728 441.37
rfemur -16.7018 -18.6042 16.643
rtibia 73.2839
rfoot 18.5927 -2.49583
rtoes 21.5599
lfemur -30.1415 9.28685 -36.1653
ltibia 28.1355
lfoot -19.002 -7.91337
ltoes -36.513
347
root 1.29791 16.5878 -1.41301 -751.247 98.3484 -396.527
lowerback -8.17561 -1.11649 -0.506257
upperback 0.724106 -1.23853 -2.97874
thorax 5.29092 -0.564666 -2.97711
lowerneck -5.72224 -3.24999 0.235505
upperneck 30.3356 -3.51302 0.00091744
head 10.6421 -1.14736 -0.329443
rclavicle -2.71962e-014 -3.35946e-014
rhumerus -52.125 18.9583 -106.965
rradius 86.6906
rwrist 21.8816
rhand 140.016 198.723
rfingers 7.12502
rthumb -12.9525 -10.8551
lclavicle -2.71962e-014 -3.35946e-014
lhumerus -48.2263 -34.3509 110.59
lradius 113.803
lwrist 52.5072
lhand -24.9178 50.3106
lfingers 7.12502
lthumb 1.591 440.284
rfemur -15.1362 -18.2399 16.9585
rtibia 70.0533
rfoot 18.5336 -3.52742
rtoes 23.4845
lfemur -30.894 9.39495 -36.8113
ltibia 27.552
lfoot -18.7159 -8.36516
ltoes -37.1876
348
root 1.09807 16.5659 -1.40922 -750.956 98.3444 -396.576
lowerback -8.20584 -1.34165 -0.565559
upperback 0.668829 -1.52817 -3.04001
thorax 5.23651 -0.708353 -3.04343
lowerneck -5.54978 -2.93335 0.521163
upperneck 29.9812 -3.08518 -0.146013
head 10.4654 -0.950578 -0.383734
rclavicle -3.2054e-015 -1.98785e-015
rhumerus -53.3562 19.2028 -106.353
rradius 87.6771
rwrist 22.1228
rhand 139.581 197.998
rfingers 7.12502
rthumb -13.3716 -11.5528
lclavicle -3.2054e-015 -1.98785e-015
lhumerus -48.7037 -34.7482 111.544
lradius 111.494
lwrist 53.4175
lhand -25.2286 49.125
lfingers 7.12502
lthumb 1.29082 439.101
rfemur -13.7074 -17.3252 17.7124
rtibia 66.2792
rfoot 18.955 -4.53097
rtoes 31.5489
lfemur -31.6665 9.90846 -37.2082
ltibia 26.7812
lfoot -18.3194 -8.76075
ltoes -37.4256
